# xmcd CD database file
#
# Track frame offsets:
#	150
#	14810
#	30002
#	46527
#	60572
#	74337
#	89902
#	108835
#	122630
#	137380
#	152247
#	166992
#	181280
#	195697
#
# Disc length: 2788 seconds
#
# Revision: 0
# Processed by: cddbd v1.5.1PL0 Copyright (c) Steve Scherf et al.
# Submitted via: CDex 1.51
#
DISCID=b30ae20e
DTITLE=A-TEENS - TEEN SPIRIT
DYEAR=2001
DGENRE=Pop
TTITLE0=UPSIDE DOWN
TTITLE1=TO THE MUSIC
TTITLE2=HALFWAY AROUND THE WORLD
TTITLE3=FIREFLY
TTITLE4=SUGAR RUSH
TTITLE5=ROCKIN'
TTITLE6=AROUND THE CORNER OF YOUR EYE
TTITLE7=SLAMMIN' KINDA LOVE
TTITLE8=ALL MY LOVE
TTITLE9=FOR ALL THAT I AM
TTITLE10=THAT'S WHAT (IT'S ALL ABOUT)
TTITLE11=MORNING LIGHT
TTITLE12=BACK FOR MORE
TTITLE13=CAN'T STOP THE POP
EXTD=YEAR: 2001
EXTT0=
EXTT1=
EXTT2=
EXTT3=
EXTT4=
EXTT5=
EXTT6=
EXTT7=
EXTT8=
EXTT9=
EXTT10=
EXTT11=
EXTT12=
EXTT13=
PLAYORDER=
